<svg width="25" height="25" viewBox="0 0 25 25" fill="none" xmlns="http://www.w3.org/2000/svg">
<path d="M5.19559 13.6812L9.42967 17.914L9.42972 17.914C9.65143 18.1357 9.77599 18.4364 9.77599 18.75C9.77599 19.0635 9.65143 19.3642 9.42972 19.586C9.208 19.8077 8.9073 19.9322 8.59375 19.9322C8.2802 19.9322 7.9795 19.8077 7.75778 19.586L1.50814 13.3363L5.19559 13.6812ZM5.19559 13.6812H22.6562C22.9695 13.6812 23.27 13.5568 23.4915 13.3353C23.713 13.1137 23.8375 12.8133 23.8375 12.5C23.8375 12.1867 23.713 11.8862 23.4915 11.6647C23.27 11.4432 22.9695 11.3187 22.6562 11.3187L5.19559 11.3187M5.19559 13.6812V11.3187M5.19559 11.3187L9.42967 7.086L9.42972 7.08596C9.65143 6.86425 9.77599 6.56354 9.77599 6.24999C9.77599 5.93644 9.65143 5.63574 9.42972 5.41402C9.208 5.19231 8.9073 5.06775 8.59375 5.06775C8.2802 5.06775 7.9795 5.19231 7.75778 5.41402L1.50814 11.6637L5.19559 11.3187ZM1.25131 12.0473C1.31079 11.9039 1.39794 11.7737 1.50778 11.664V13.336C1.39794 13.2263 1.31079 13.0961 1.25131 12.9527C1.19176 12.8092 1.1611 12.6554 1.1611 12.5C1.1611 12.3446 1.19176 12.1908 1.25131 12.0473Z" fill="white" stroke="white" stroke-width="0.8"/>
</svg>
