<svg width="25" height="25" viewBox="0 0 25 25" fill="none" xmlns="http://www.w3.org/2000/svg">
<path d="M19.8044 13.6812L15.5703 17.914L15.5703 17.914C15.3486 18.1357 15.224 18.4364 15.224 18.75C15.224 19.0635 15.3486 19.3642 15.5703 19.586C15.792 19.8077 16.0927 19.9322 16.4062 19.9322C16.7198 19.9322 17.0205 19.8077 17.2422 19.586L23.4919 13.3363L19.8044 13.6812ZM19.8044 13.6812H2.34375C2.03046 13.6812 1.73001 13.5568 1.50848 13.3353C1.28695 13.1137 1.1625 12.8133 1.1625 12.5C1.1625 12.1867 1.28695 11.8862 1.50848 11.6647C1.73001 11.4432 2.03046 11.3187 2.34375 11.3187L19.8044 11.3187M19.8044 13.6812V11.3187M19.8044 11.3187L15.5703 7.086L15.5703 7.08596C15.3486 6.86425 15.224 6.56354 15.224 6.24999C15.224 5.93644 15.3486 5.63574 15.5703 5.41402C15.792 5.19231 16.0927 5.06775 16.4062 5.06775C16.7198 5.06775 17.0205 5.19231 17.2422 5.41402L23.4919 11.6637L19.8044 11.3187ZM23.7487 12.0473C23.6892 11.9039 23.6021 11.7737 23.4922 11.664V13.336C23.6021 13.2263 23.6892 13.0961 23.7487 12.9527C23.8082 12.8092 23.8389 12.6554 23.8389 12.5C23.8389 12.3446 23.8082 12.1908 23.7487 12.0473Z" fill="white" stroke="white" stroke-width="0.8"/>
</svg>
