<svg width="17" height="17" viewBox="0 0 17 17" fill="none" xmlns="http://www.w3.org/2000/svg">
<path d="M2.61435 4.457C3.60815 3.37962 5.11194 2.8335 7.08323 2.8335H7.79156V4.83029L7.22206 4.94433C6.25165 5.13841 5.57661 5.5202 5.21536 6.0805C5.02686 6.38234 4.91996 6.72794 4.90511 7.0835H7.08323C7.27109 7.0835 7.45126 7.15812 7.5841 7.29096C7.71694 7.4238 7.79156 7.60397 7.79156 7.79183V12.7502C7.79156 13.5315 7.15619 14.1668 6.3749 14.1668H2.1249C1.93703 14.1668 1.75687 14.0922 1.62403 13.9594C1.49119 13.8265 1.41656 13.6464 1.41656 13.4585V9.91683L1.41869 7.8492C1.41231 7.77058 1.27773 5.90766 2.61435 4.457ZM14.1666 14.1668H9.91656C9.7287 14.1668 9.54853 14.0922 9.4157 13.9594C9.28286 13.8265 9.20823 13.6464 9.20823 13.4585V9.91683L9.21036 7.8492C9.20398 7.77058 9.0694 5.90766 10.406 4.457C11.3998 3.37962 12.9036 2.8335 14.8749 2.8335H15.5832V4.83029L15.0137 4.94433C14.0433 5.13841 13.3683 5.5202 13.007 6.0805C12.8185 6.38234 12.7116 6.72794 12.6968 7.0835H14.8749C15.0628 7.0835 15.2429 7.15812 15.3758 7.29096C15.5086 7.4238 15.5832 7.60397 15.5832 7.79183V12.7502C15.5832 13.5315 14.9479 14.1668 14.1666 14.1668Z" fill="#0A72AD"/>
</svg>
