<svg width="94" height="94" viewBox="0 0 94 94" fill="none" xmlns="http://www.w3.org/2000/svg">
<circle cx="47" cy="47" r="47" fill="#2387C0" fill-opacity="0.3"/>
<circle cx="47" cy="47" r="37" fill="#2387C0"/>
<path d="M67.6053 42.7031H56.6053C56.4162 42.7031 56.2615 42.8578 56.2615 43.0469V45.1094C56.2615 45.2984 56.4162 45.4531 56.6053 45.4531H67.6053C67.7943 45.4531 67.949 45.2984 67.949 45.1094V43.0469C67.949 42.8578 67.7943 42.7031 67.6053 42.7031ZM61.8475 48.5469H56.6053C56.4162 48.5469 56.2615 48.7016 56.2615 48.8906V50.9531C56.2615 51.1422 56.4162 51.2969 56.6053 51.2969H61.8475C62.0365 51.2969 62.1912 51.1422 62.1912 50.9531V48.8906C62.1912 48.7016 62.0365 48.5469 61.8475 48.5469ZM47.5088 38.8574H45.6482C45.3818 38.8574 45.167 39.0723 45.167 39.3387V49.9949C45.167 50.1496 45.24 50.2914 45.3646 50.3816L51.7627 55.048C51.9775 55.2027 52.2783 55.1598 52.433 54.9449L53.5373 53.4367V53.4324C53.692 53.2176 53.6447 52.9168 53.4299 52.7621L47.9857 48.8262V39.3387C47.99 39.0723 47.7709 38.8574 47.5088 38.8574V38.8574Z" fill="white"/>
<path d="M61.5812 53.9566H59.0977C58.857 53.9566 58.6293 54.0812 58.5004 54.2874C57.9547 55.1511 57.3187 55.9503 56.5883 56.6808C55.3293 57.9398 53.8641 58.9281 52.2355 59.6156C50.5469 60.3288 48.7551 60.6898 46.9074 60.6898C45.0555 60.6898 43.2637 60.3288 41.5793 59.6156C39.9508 58.9281 38.4855 57.9398 37.2266 56.6808C35.9676 55.4218 34.9793 53.9566 34.2918 52.3281C33.5785 50.6437 33.2176 48.8519 33.2176 46.9999C33.2176 45.148 33.5785 43.3605 34.2918 41.6718C34.9793 40.0433 35.9676 38.5781 37.2266 37.3191C38.4855 36.0601 39.9508 35.0718 41.5793 34.3843C43.2637 33.671 45.0598 33.3101 46.9074 33.3101C48.7594 33.3101 50.5512 33.671 52.2355 34.3843C53.8641 35.0718 55.3293 36.0601 56.5883 37.3191C57.3187 38.0496 57.9547 38.8488 58.5004 39.7124C58.6293 39.9187 58.857 40.0433 59.0977 40.0433H61.5812C61.8777 40.0433 62.0668 39.7339 61.9336 39.4718C59.132 33.8988 53.4516 30.2765 47.1094 30.2035C37.8238 30.0874 30.1109 37.6886 30.0937 46.9656C30.0766 56.2597 37.609 63.8007 46.9031 63.8007C53.327 63.8007 59.102 60.1656 61.9336 54.5281C62.0668 54.266 61.8734 53.9566 61.5812 53.9566V53.9566Z" fill="white"/>
</svg>
